<?xml version="1.0" encoding="UTF-8"?>
<svg width="24px" height="24px" viewBox="0 0 24 24" version="1.1" xmlns="http://www.w3.org/2000/svg" xmlns:xlink="http://www.w3.org/1999/xlink">
    <!-- Generator: Sketch 46.1 (44463) - http://www.bohemiancoding.com/sketch -->
    <title>app_icon</title>
    <desc>Created with Sketch.</desc>
    <defs></defs>
    <g id="Symbols" stroke="none" stroke-width="1" fill="none" fill-rule="evenodd">
        <g id="app_icon" fill-rule="nonzero" fill="#4EB3D5">
            <g id="ic_description_black_24px-copy-3" transform="translate(4.000000, 2.000000)">
                <path d="M9.7826087,0 L1.95652174,0 C0.880434783,0 0.0097826087,0.9 0.0097826087,2 L0,18 C0,19.1 0.870652174,20 1.94673913,20 L13.6956522,20 C14.7717391,20 15.6521739,19.1 15.6521739,18 L15.6521739,6 L9.7826087,0 Z M11.7391304,16 L3.91304348,16 L3.91304348,14 L11.7391304,14 L11.7391304,16 Z M11.7391304,12 L3.91304348,12 L3.91304348,10 L11.7391304,10 L11.7391304,12 Z M8.80434783,7 L8.80434783,1.5 L14.1847826,7 L8.80434783,7 Z" id="Shape"></path>
            </g>
        </g>
    </g>
</svg>