<?xml version="1.0" encoding="UTF-8"?>
<svg width="24px" height="24px" viewBox="0 0 24 24" version="1.1" xmlns="http://www.w3.org/2000/svg" xmlns:xlink="http://www.w3.org/1999/xlink">
    <!-- Generator: Sketch 46.1 (44463) - http://www.bohemiancoding.com/sketch -->
    <title>sent_icon</title>
    <desc>Created with Sketch.</desc>
    <defs></defs>
    <g id="Symbols" stroke="none" stroke-width="1" fill="none" fill-rule="evenodd">
        <g id="sent_icon" fill="#4EB3D5">
            <path d="M11,8.001 L11,2.001 L7,2.001 C6.665,2.001 6.354,2.169 6.168,2.447 L2.465,8.001 L11,8.001 Z" id="Fill-453"></path>
            <path d="M21.5352,8.001 L17.8322,2.447 C17.6462,2.169 17.3342,2.001 17.0002,2.001 L13.0002,2.001 L13.0002,8.001 L21.5352,8.001 Z" id="Fill-454"></path>
            <path d="M13,16.001 L19,16.001 L19,19.001 L13,19.001 L13,16.001 Z M2,21.001 C2,21.553 2.448,22.001 3,22.001 L21,22.001 C21.552,22.001 22,21.553 22,21.001 L22,10.001 L2,10.001 L2,21.001 Z" id="Fill-455"></path>
        </g>
    </g>
</svg>