<?xml version="1.0" encoding="UTF-8"?>
<svg width="24px" height="24px" viewBox="0 0 24 24" version="1.1" xmlns="http://www.w3.org/2000/svg" xmlns:xlink="http://www.w3.org/1999/xlink">
    <!-- Generator: Sketch 46.1 (44463) - http://www.bohemiancoding.com/sketch -->
    <title>transaction_complete_icon2</title>
    <desc>Created with Sketch.</desc>
    <defs></defs>
    <g id="Symbols" stroke="none" stroke-width="1" fill="none" fill-rule="evenodd">
        <g id="transaction_complete_icon2">
            <g id="ic_assignment_turned_in_black_24px">
                <polygon id="Shape" points="0 0 24 0 24 24 0 24"></polygon>
                <path d="M19,4 L14.82,4 C14.4,2.84 13.3,2 12,2 C10.7,2 9.6,2.84 9.18,4 L5,4 C3.9,4 3,4.9 3,6 L3,20 C3,21.1 3.9,22 5,22 L19,22 C20.1,22 21,21.1 21,20 L21,6 C21,4.9 20.1,4 19,4 Z M12,4 C12.55,4 13,4.45 13,5 C13,5.55 12.55,6 12,6 C11.45,6 11,5.55 11,5 C11,4.45 11.45,4 12,4 Z M15,7 L16.414,8.415 L10.707,14.121 L7,10.415 L8.414,9 L10.707,11.293 L15,7 Z M15,13 L16.414,14.415 L10.707,20.121 L7,16.415 L8.414,15 L10.707,17.293 L15,13 Z" id="Combined-Shape" fill="#70B345" fill-rule="nonzero"></path>
            </g>
        </g>
    </g>
</svg>